<?xml version="1.0" standalone="no"?>
<!DOCTYPE svg PUBLIC "-//W3C//DTD SVG 20010904//EN"
 "http://www.w3.org/TR/2001/REC-SVG-20010904/DTD/svg10.dtd">
<svg version="1.0" xmlns="http://www.w3.org/2000/svg"
 width="801.000000pt" height="644.000000pt" viewBox="0 0 801.000000 644.000000"
 preserveAspectRatio="xMidYMid meet">

<g transform="translate(0.000000,644.000000) scale(0.100000,-0.100000)"
fill="#000000" stroke="none">
<path d="M3731 5920 c-310 -47 -604 -166 -861 -348 -109 -77 -304 -262 -393
-372 -87 -108 -196 -280 -232 -367 l-14 -33 33 0 c32 0 36 5 85 93 85 152 179
274 316 412 132 133 224 208 350 285 560 343 1264 379 1840 94 360 -177 637
-438 835 -787 52 -91 57 -97 88 -97 17 0 32 3 32 8 0 14 -83 158 -144 252
-267 407 -699 709 -1186 829 -216 53 -519 65 -749 31z"/>
<path d="M4458 4778 c-73 -73 -486 -607 -698 -903 -51 -71 -97 -133 -102 -136
-5 -3 -92 -8 -192 -11 -181 -6 -226 -14 -226 -42 0 -24 32 -27 193 -20 152 7
157 6 157 -13 0 -17 -393 -659 -503 -823 -41 -61 -46 -85 -19 -99 31 -16 53 9
132 146 122 214 318 537 404 666 l81 122 170 3 c185 3 215 0 215 -24 0 -9 -21
-68 -46 -132 -59 -149 -75 -199 -68 -217 8 -19 48 -20 63 -1 6 7 38 87 72 177
33 90 65 169 71 176 8 10 66 13 245 13 199 0 234 2 239 15 14 37 -11 42 -220
50 -112 4 -209 11 -216 15 -11 7 14 81 110 337 231 614 241 644 238 693 -3 41
-6 45 -30 48 -21 3 -37 -7 -70 -40z m-127 -463 c-159 -438 -209 -563 -232
-575 -23 -13 -320 -12 -340 1 -18 11 -17 11 129 209 256 344 545 702 550 680
1 -8 -47 -150 -107 -315z"/>
<path d="M2740 4661 c-197 -65 -418 -212 -639 -426 -475 -461 -688 -993 -478
-1196 98 -96 278 -90 519 16 56 25 104 41 106 37 1 -5 26 -50 55 -101 85 -147
172 -264 294 -391 287 -300 635 -491 1048 -576 131 -27 155 -29 375 -29 205 0
250 3 355 24 255 50 539 165 745 303 265 178 496 432 644 708 25 47 46 88 46
93 0 4 -15 7 -32 7 -30 0 -36 -5 -63 -58 -51 -99 -180 -284 -262 -374 -401
-448 -988 -687 -1571 -639 -280 23 -474 76 -718 199 -350 176 -627 444 -828
804 l-37 67 23 14 c13 8 52 32 88 53 143 84 455 323 808 616 82 69 96 94 67
118 -23 19 -45 5 -175 -110 -380 -337 -641 -527 -885 -646 -233 -113 -382
-147 -480 -110 -181 70 -147 364 82 711 166 252 455 546 678 691 213 138 374
186 430 129 96 -95 -88 -487 -270 -575 -25 -12 -67 -28 -92 -34 -50 -13 -70
-33 -60 -60 11 -27 85 -21 156 15 147 74 271 235 335 437 41 132 32 217 -30
271 -32 29 -40 31 -107 30 -41 0 -96 -8 -127 -18z"/>
<path d="M5790 4656 c-323 -113 -709 -442 -961 -819 -264 -395 -297 -725 -84
-840 34 -19 56 -22 145 -21 92 0 117 4 200 33 174 61 373 170 572 313 169 122
685 537 701 563 10 19 -1 43 -24 50 -24 8 -37 -2 -234 -175 -574 -505 -1050
-764 -1285 -700 -125 34 -164 195 -95 390 139 390 572 878 966 1089 154 82
265 102 310 55 84 -90 -71 -448 -241 -556 -25 -16 -75 -38 -111 -48 -74 -22
-89 -40 -58 -71 26 -26 59 -20 152 28 181 95 346 364 347 566 0 72 -21 120
-65 147 -45 28 -148 26 -235 -4z"/>
<path d="M1134 1369 c-81 -23 -179 -156 -190 -257 -11 -100 62 -161 158 -133
48 14 144 104 132 123 -5 7 -18 -2 -36 -25 -42 -51 -91 -79 -140 -79 -94 2
-118 87 -58 208 47 97 128 155 197 142 27 -5 23 -47 -7 -70 -28 -20 -60 -16
-60 8 0 8 -4 14 -10 14 -14 0 -13 -33 2 -48 35 -35 118 16 118 74 0 50 -34 64
-106 43z"/>
<path d="M1543 1365 c-31 -13 -60 -51 -49 -63 4 -3 20 7 36 23 32 30 48 29 32
-2 -6 -10 -22 -65 -36 -122 -14 -58 -30 -109 -35 -114 -6 -6 -27 -1 -56 13
-51 25 -83 22 -115 -10 -20 -20 -26 -65 -12 -86 26 -39 86 -43 136 -9 44 30
47 30 94 6 65 -33 106 -36 157 -11 51 25 99 80 93 107 -3 14 -9 11 -28 -18
-34 -51 -78 -79 -126 -79 -45 0 -124 33 -124 51 0 7 9 42 20 78 11 36 29 99
40 138 13 48 27 76 40 83 52 28 -8 41 -67 15z m-98 -298 c26 -22 26 -23 7 -40
-47 -42 -123 -37 -130 10 -8 51 75 72 123 30z"/>
<path d="M2005 1365 c-57 -20 -115 -85 -115 -128 0 -19 7 -40 15 -47 19 -16
34 -5 17 12 -21 21 -13 56 19 93 54 61 60 47 29 -74 -35 -138 -61 -185 -117
-212 -45 -22 -60 -45 -20 -33 84 26 118 72 152 210 31 123 43 152 66 165 21
11 25 29 7 29 -7 -1 -31 -7 -53 -15z"/>
<path d="M2325 1356 c-141 -65 -217 -274 -131 -355 35 -33 93 -38 142 -13 56
28 138 122 108 122 -3 0 -24 -20 -47 -46 -68 -74 -154 -88 -199 -33 -52 62 12
228 111 291 48 30 116 38 124 16 7 -21 -14 -55 -41 -68 -23 -10 -29 -9 -45 11
-20 25 -32 20 -22 -10 15 -49 104 -28 124 30 16 46 -8 79 -57 79 -9 0 -40 -11
-67 -24z"/>
<path d="M2631 1362 c-37 -18 -60 -46 -48 -58 4 -4 18 5 31 19 14 15 29 27 34
27 12 0 -17 -90 -35 -112 -9 -9 -10 -18 -5 -22 14 -8 -9 -93 -39 -145 -15 -27
-37 -48 -66 -62 -24 -11 -43 -25 -43 -30 0 -30 94 22 124 69 14 20 33 65 42
100 10 34 20 62 24 62 19 0 45 -35 87 -120 35 -70 56 -99 76 -109 21 -9 32
-10 40 -2 8 8 2 14 -21 22 -27 9 -39 25 -69 88 -20 42 -45 88 -55 103 l-19 27
45 20 c44 19 106 88 106 118 0 22 -20 15 -29 -10 -15 -38 -69 -86 -112 -98
-21 -7 -42 -9 -46 -6 -10 11 28 97 48 107 55 30 -14 41 -70 12z"/>
<path d="M3155 1371 c-25 -11 -51 -40 -59 -67 -9 -30 8 -68 55 -127 21 -28 42
-61 45 -74 15 -59 -26 -105 -93 -105 -46 0 -86 39 -81 81 2 14 -1 28 -7 31
-15 7 -18 -48 -5 -80 16 -38 71 -64 116 -55 19 3 49 19 67 35 50 44 45 88 -21
177 -56 76 -66 117 -34 146 10 10 35 17 55 17 40 0 57 -19 57 -64 0 -14 5 -26
10 -26 17 0 11 66 -7 89 -20 24 -68 35 -98 22z"/>
<path d="M3928 1364 c-14 -7 -49 -50 -77 -94 -45 -70 -55 -80 -81 -80 -43 0
-77 -16 -96 -45 -21 -32 -9 -48 14 -18 18 23 78 50 89 39 10 -9 -18 -55 -66
-109 -48 -53 -87 -75 -105 -57 -14 14 -26 12 -26 -5 0 -8 12 -18 27 -21 51
-13 108 36 194 165 13 21 18 23 40 11 53 -27 79 -62 79 -105 0 -46 22 -85 49
-85 25 0 56 36 80 93 24 56 24 57 11 57 -6 0 -21 -24 -34 -52 -27 -63 -51 -87
-69 -69 -14 14 -12 77 8 189 19 108 20 188 2 195 -7 3 -24 -1 -39 -9z m29 -76
c-3 -35 -11 -87 -17 -116 l-12 -53 -33 26 c-19 14 -38 25 -44 25 -23 0 -20 24
9 73 35 57 78 107 93 107 6 0 8 -25 4 -62z"/>
<path d="M4300 1369 c-29 -11 -61 -49 -53 -62 3 -5 18 4 34 19 16 15 31 26 33
23 3 -2 -4 -36 -15 -74 -10 -39 -26 -95 -34 -125 -22 -81 -49 -118 -101 -142
-30 -13 -43 -23 -36 -30 15 -15 74 14 105 52 36 43 50 78 76 192 15 63 29 102
42 114 l21 19 -7 -165 c-5 -127 -3 -171 7 -189 7 -13 17 -24 23 -25 5 0 26 44
47 99 21 55 60 144 87 197 27 54 45 100 41 103 -16 10 -116 -187 -155 -303 -9
-29 -20 -50 -24 -47 -3 4 -6 84 -6 178 l0 172 -30 2 c-16 1 -41 -2 -55 -8z"/>
<path d="M4752 1370 c-63 -15 -112 -82 -112 -155 0 -19 5 -35 10 -35 6 0 10
14 10 30 0 113 128 183 208 115 68 -57 60 -230 -14 -297 -48 -42 -115 -42
-129 1 -7 22 -35 30 -35 10 0 -6 14 -24 30 -41 28 -27 36 -30 73 -25 131 18
196 255 99 360 -21 22 -82 50 -102 46 -3 -1 -20 -5 -38 -9z"/>
<path d="M5516 1365 c-50 -18 -121 -87 -153 -149 -35 -68 -41 -151 -14 -193
27 -43 85 -61 142 -44 45 14 144 105 133 123 -3 5 -28 -13 -56 -41 -56 -57
-100 -74 -153 -60 -92 26 -79 170 24 282 48 52 85 70 132 65 59 -5 46 -63 -19
-83 -19 -5 -25 -2 -29 14 -7 26 -23 28 -23 3 0 -48 58 -56 101 -13 39 39 40
87 3 101 -32 13 -40 12 -88 -5z"/>
<path d="M6394 1370 c-17 -6 -38 -18 -48 -29 -21 -23 -34 -91 -17 -91 6 0 11
7 11 15 0 50 43 85 105 85 49 0 75 -29 75 -82 0 -53 -17 -88 -51 -107 -23 -13
-28 -12 -57 9 l-31 23 17 46 c11 27 26 50 40 56 27 12 29 25 3 25 -29 0 -57
-42 -86 -133 -45 -137 -91 -197 -152 -197 -12 0 -14 -3 -6 -11 34 -34 116 30
148 115 10 25 21 46 26 46 31 0 60 -28 80 -77 21 -53 58 -93 85 -93 23 0 16
20 -10 32 -15 6 -36 33 -50 62 l-24 51 21 15 c41 28 56 49 68 92 27 103 -47
178 -147 148z"/>
<path d="M7000 1370 c-8 -5 -50 -6 -95 -3 -62 4 -84 2 -100 -10 -27 -21 -15
-30 21 -16 26 9 115 5 135 -6 9 -6 -52 -210 -79 -261 -23 -44 -50 -67 -96 -78
-20 -5 -26 -10 -18 -18 17 -17 79 10 112 50 29 35 46 80 90 230 l21 73 42 -5
c47 -6 108 11 115 33 4 11 -1 12 -19 7 -57 -18 -82 -19 -91 -2 -10 18 -17 19
-38 6z"/>
<path d="M5980 1350 c-11 -11 -41 -52 -65 -90 -39 -61 -49 -70 -74 -70 -40 0
-77 -18 -96 -46 -18 -28 -2 -42 17 -15 13 19 56 41 79 41 18 0 8 -23 -36 -85
-49 -70 -105 -106 -131 -84 -19 16 -30 4 -14 -16 33 -39 112 6 175 101 22 32
43 63 46 68 4 5 28 -3 53 -18 46 -27 50 -33 60 -110 11 -83 66 -88 108 -9 33
62 43 93 28 93 -6 0 -20 -21 -31 -47 -25 -58 -46 -83 -65 -76 -18 7 -18 74 1
178 8 44 14 108 15 143 0 60 -1 62 -25 62 -14 0 -34 -9 -45 -20z m50 -33 c0
-30 -12 -115 -26 -175 l-5 -23 -33 26 c-18 14 -38 25 -44 25 -25 0 -21 23 14
77 40 63 73 103 86 103 4 0 8 -15 8 -33z"/>
<path d="M4768 1303 c-22 -25 -34 -50 -59 -124 -43 -127 -90 -189 -144 -189
-8 0 -15 -4 -15 -10 0 -18 46 -11 81 13 38 26 79 100 109 197 22 73 44 110 66
110 8 0 14 5 14 10 0 16 -36 11 -52 -7z"/>
</g>
</svg>
